#!OML:ASF H:\MichaelJackson\Top Level 1\Subject 1\Session 1\male.ASF
:FULLY-SPECIFIED
:DEGREES
167
root -14.4249 16.4019 -32.5555 7.69482 22.6704 2.89274
lowerback -1.63902 -1.32587 -2.73346
upperback -4.45154 -1.86283 -3.58451
thorax -3.70422 -0.892924 -2.13904
lowerneck -4.60713 -6.03801 2.30372
upperneck -0.243532 -8.19123 2.50843
head 0.691673 -4.05957 0.232866
rclavicle -6.4605e-015 7.95139e-015
rhumerus -57.7613 39.9586 -57.9027
rradius 126.38
rwrist -26.3836
rhand -9.60631 -9.99035
rfingers 7.12502
rthumb 16.3627 -39.3201
lclavicle -6.4605e-015 7.95139e-015
lhumerus -63.0972 -42.7439 124.146
lradius 51.3128
lwrist 19.2075
lhand 36.2443 28.6159
lfingers 7.12502
lthumb 59.2157 43.1939
rfemur -15.5793 -6.96554 0.0815158
rtibia 42.397
rfoot -23.292 6.81121
rtoes 47.9006
lfemur -16.3797 -4.10952 -1.013
ltibia 31.6559
lfoot -10.0065 -28.7408
ltoes 32.7977
168
root -14.4322 16.3873 -32.563 8.17768 21.9385 2.72161
lowerback -2.13875 -0.905384 -1.89834
upperback -4.6632 -1.29067 -3.93211
thorax -3.65897 -0.64329 -2.98461
lowerneck -4.73403 -6.17719 3.21567
upperneck -0.198519 -8.42407 2.15662
head 0.672034 -4.17804 -0.0236902
rclavicle -2.18663e-014 1.19271e-014
rhumerus -56.5212 41.002 -52.8925
rradius 126.858
rwrist -29.0295
rhand -9.42368 -8.15137
rfingers 7.12502
rthumb 16.5386 -37.4666
lclavicle -2.18663e-014 1.19271e-014
lhumerus -64.5609 -43.5285 125.079
lradius 51.0979
lwrist 19.3729
lhand 35.3983 26.008
lfingers 7.12502
lthumb 58.4836 41.2874
rfemur -16.4495 -8.38748 0.175501
rtibia 42.2655
rfoot -22.6807 8.31732
rtoes 49.6928
lfemur -16.0381 -6.69849 0.271881
ltibia 29.6999
lfoot -9.38529 -31.0584
ltoes 34.3112
169
root -14.4622 16.3915 -32.5454 7.87058 21.5136 2.31701
lowerback -2.07845 -0.573284 -1.33392
upperback -4.62276 -0.851602 -4.09806
thorax -3.64511 -0.447187 -3.47945
lowerneck -4.92138 -6.30967 4.07043
upperneck -0.0515287 -8.65417 1.85558
head 0.697873 -4.29183 -0.261297
rclavicle 1.19768e-014 -3.10104e-014
rhumerus -54.6952 41.8164 -47.383
rradius 126.666
rwrist -31.4609
rhand -9.13615 -6.03481
rfingers 7.12502
rthumb 16.8154 -35.3267
lclavicle 1.19768e-014 -3.10104e-014
lhumerus -65.6886 -44.2486 125.773
lradius 51.105
lwrist 19.8954
lhand 35.4459 26.9598
lfingers 7.12502
lthumb 58.525 42.2006
rfemur -16.6113 -9.35212 0.719153
rtibia 42.3461
rfoot -22.3088 9.06223
rtoes 51.3134
lfemur -15.0882 -9.00939 1.7138
ltibia 28.0117
lfoot -9.22901 -33.2976
ltoes 33.5271
170
root -14.4731 16.3788 -32.5552 8.14344 20.8129 2.44996
lowerback -2.25615 -0.175235 -0.953064
upperback -4.68365 -0.321987 -4.42934
thorax -3.58736 -0.201774 -4.04749
lowerneck -5.06057 -6.41168 4.81694
upperneck -0.0991833 -8.83311 1.65878
head 0.663504 -4.3832 -0.444181
rclavicle -8.54774e-015 1.90833e-014
rhumerus -52.75 42.3698 -41.5048
rradius 125.898
rwrist -33.049
rhand -9.0205 -3.99219
rfingers 7.12502
rthumb 16.9267 -33.2746
lclavicle -8.54774e-015 1.90833e-014
lhumerus -66.5711 -44.9382 126.241
lradius 51.0775
lwrist 19.9044
lhand 37.0223 28.7135
lfingers 7.12502
lthumb 59.8843 42.6147
rfemur -17.372 -10.6507 0.518496
rtibia 42.6205
rfoot -21.4921 10.3578
rtoes 52.4882
lfemur -14.6166 -11.0985 2.33322
ltibia 26.5741
lfoot -9.22556 -33.8359
ltoes 32.8336
171
root -14.4865 16.3606 -32.571 8.17645 19.9279 2.32208
lowerback -2.17911 0.292678 -0.400203
upperback -4.6866 0.295617 -4.66575
thorax -3.5928 0.0832622 -4.61473
lowerneck -5.54432 -6.50113 5.60572
upperneck 0.0934381 -9.02868 1.36144
head 0.754183 -4.47611 -0.687156
rclavicle -5.06901e-015 -1.11319e-014
rhumerus -50.4432 41.1652 -36.0322
rradius 123.881
rwrist -33.2055
rhand -8.06654 -2.96856
rfingers 7.12502
rthumb 17.8448 -32.1698
lclavicle -5.06901e-015 -1.11319e-014
lhumerus -67.3248 -45.8046 126.781
lradius 50.9662
lwrist 19.715
lhand 37.3391 28.071
lfingers 7.12502
lthumb 60.1552 41.6873
rfemur -18.2011 -11.4876 0.582408
rtibia 43.0096
rfoot -20.9677 11.4629
rtoes 53.0408
lfemur -13.92 -12.845 2.98367
ltibia 25.2837
lfoot -9.1864 -34.0371
ltoes 33.9339
172
root -14.5061 16.3393 -32.578 8.10283 19.3597 2.74956
lowerback -1.94013 0.617216 -0.541586
upperback -4.58722 0.718672 -4.98019
thorax -3.5909 0.295418 -4.87056
lowerneck -5.75216 -6.58709 6.43252
upperneck 0.0812961 -9.20222 1.04519
head 0.730906 -4.56549 -0.926799
rclavicle 4.72611e-014 9.54166e-015
rhumerus -48.1294 39.9646 -30.5745
rradius 120.788
rwrist -32.7894
rhand -7.11991 -0.72727
rfingers 7.12502
rthumb 18.7555 -29.8431
lclavicle 4.72611e-014 9.54166e-015
lhumerus -68.1249 -46.5719 127.29
lradius 50.9064
lwrist 19.4985
lhand 38.5573 28.01
lfingers 7.12502
lthumb 61.1889 40.4786
rfemur -18.5086 -12.2129 0.0314047
rtibia 43.4832
rfoot -20.3974 12.5365
rtoes 53.9364
lfemur -13.1551 -13.8221 2.84862
ltibia 24.2948
lfoot -9.00715 -34.3525
ltoes 34.0527
173
root -14.5209 16.3163 -32.5965 7.98333 18.6334 3.09104
lowerback -1.6804 1.00271 -0.323097
upperback -4.41383 1.22444 -5.42632
thorax -3.50534 0.536327 -5.47247
lowerneck -5.92743 -6.67069 7.40158
upperneck -0.18205 -9.37499 0.805323
head 0.618299 -4.66099 -1.15901
rclavicle 5.76476e-015 6.36111e-015
rhumerus -46.1372 46.3273 -21.5918
rradius 118.71
rwrist -37.2365
rhand -8.59645 3.28764
rfingers 7.12502
rthumb 17.3349 -25.9593
lclavicle 5.76476e-015 6.36111e-015
lhumerus -68.9258 -47.6121 127.618
lradius 51.188
lwrist 19.7543
lhand 38.7261 26.8484
lfingers 7.12502
lthumb 61.331 39.1511
rfemur -18.9188 -12.6395 -0.464341
rtibia 43.9583
rfoot -19.9318 13.5305
rtoes 54.7136
lfemur -12.4033 -13.9136 2.55416
ltibia 23.544
lfoot -8.8227 -34.7469
ltoes 33.1929
174
root -14.5408 16.2933 -32.6145 7.77343 17.7533 3.47434
lowerback -1.26009 1.42547 -0.464067
upperback -4.25869 1.77467 -5.74013
thorax -3.52648 0.813096 -5.73876
lowerneck -6.24355 -6.71763 8.30645
upperneck -0.24149 -9.51712 0.510917
head 0.59279 -4.7362 -1.41268
rclavicle 8.83598e-014 -2.38542e-014
rhumerus -43.0772 47.8379 -14.3639
rradius 115.464
rwrist -39.2436
rhand -9.04171 5.64521
rfingers 7.12502
rthumb 16.9063 -23.6389
lclavicle 8.83598e-014 -2.38542e-014
lhumerus -69.6554 -48.5175 128.15
lradius 51.3697
lwrist 20.0504
lhand 38.9968 27.4173
lfingers 7.12502
lthumb 61.5584 39.4504
rfemur -19.3204 -12.8955 -0.970058
rtibia 44.3782
rfoot -19.6595 14.3469
rtoes 54.7112
lfemur -11.4672 -13.4843 2.04684
ltibia 22.933
lfoot -9.24993 -34.9624
ltoes 31.6791
175
root -14.5589 16.2632 -32.6409 7.4777 16.7134 3.72219
lowerback -0.657836 1.90998 -0.644794
upperback -4.17715 2.39733 -5.92585
thorax -3.72313 1.12611 -5.86377
lowerneck -6.36446 -6.77513 9.04756
upperneck -0.335915 -9.64857 0.364561
head 0.536393 -4.80625 -1.58466
rclavicle 6.29153e-014 4.77083e-015
rhumerus -40.4183 44.2064 -9.97894
rradius 109.778
rwrist -38.7232
rhand -8.34048 8.31973
rfingers 7.12502
rthumb 17.5812 -20.9053
lclavicle 6.29153e-014 4.77083e-015
lhumerus -70.6501 -49.301 129.001
lradius 51.5607
lwrist 20.3583
lhand 39.1361 27.6786
lfingers 7.12502
lthumb 61.6752 39.5711
rfemur -19.6793 -12.6552 -1.33828
rtibia 44.7158
rfoot -19.6396 15.1542
rtoes 54.636
lfemur -10.5355 -12.6796 1.53934
ltibia 22.5411
lfoot -10.0669 -34.8779
ltoes 30.0421
176
root -14.5873 16.2339 -32.6551 6.71001 16.0086 3.53981
lowerback 0.175225 2.30479 -0.724712
upperback -3.9707 2.90109 -5.86211
thorax -3.93789 1.37997 -5.79471
lowerneck -6.53351 -6.84361 9.79211
upperneck -0.404193 -9.80136 0.133
head 0.489378 -4.88775 -1.78885
rclavicle 6.05796e-014 2.38542e-014
rhumerus -38.247 39.2993 -6.20853
rradius 102.831
rwrist -37.4653
rhand -7.66713 10.6274
rfingers 7.12502
rthumb 18.2291 -18.5384
lclavicle 6.05796e-014 2.38542e-014
lhumerus -71.6298 -49.9614 129.901
lradius 51.9449
lwrist 20.8194
lhand 38.9413 28.4056
lfingers 7.12502
lthumb 61.5119 40.4942
rfemur -19.4173 -12.0339 -1.12584
rtibia 44.9082
rfoot -20.4683 15.568
rtoes 54.4566
lfemur -9.36819 -11.7846 1.487
ltibia 22.3076
lfoot -10.5054 -34.9877
ltoes 29.7894
177
root -14.5979 16.2032 -32.683 6.86604 15.586 4.56978
lowerback 0.502745 2.55806 -1.68147
upperback -3.91334 3.19391 -6.21142
thorax -4.07094 1.55247 -5.64872
lowerneck -6.76426 -6.90673 10.5326
upperneck -0.358723 -9.96134 -0.0230963
head 0.490992 -4.96716 -1.97631
rclavicle 2.22142e-014 -3.49861e-014
rhumerus -36.0477 33.3925 -2.84887
rradius 94.895
rwrist -35.4457
rhand -7.18363 12.9778
rfingers 7.12502
rthumb 18.6942 -16.1439
lclavicle 2.22142e-014 -3.49861e-014
lhumerus -72.8356 -50.7329 131.067
lradius 52.1688
lwrist 21.2615
lhand 38.8037 29.1736
lfingers 7.12502
lthumb 61.3963 41.3995
rfemur -19.3553 -12.132 -2.24609
rtibia 44.9714
rfoot -21.3224 16.1522
rtoes 54.0243
lfemur -8.95862 -11.5336 0.109951
ltibia 22.2341
lfoot -12.0048 -34.3089
ltoes 28.311
178
root -14.6042 16.1689 -32.7099 6.66222 15.0993 4.86139
lowerback 0.977141 2.86268 -2.00619
upperback -3.86672 3.56542 -6.30514
thorax -4.27539 1.74552 -5.60633
lowerneck -6.9848 -6.96824 11.1295
upperneck -0.223224 -10.1151 -0.119931
head 0.52895 -5.03864 -2.12402
rclavicle 2.77305e-014 -7.95139e-015
rhumerus -33.9464 28.237 -0.218585
rradius 87.3427
rwrist -37.5899
rhand -7.86442 12.1053
rfingers 7.12502
rthumb 18.0393 -17.0782
lclavicle 2.77305e-014 -7.95139e-015
lhumerus -74.0069 -51.3407 132.361
lradius 52.2178
lwrist 21.6646
lhand 37.6069 27.201
lfingers 7.12502
lthumb 60.3836 40.5722
rfemur -19.2492 -11.9225 -2.45368
rtibia 44.8972
rfoot -22.7599 16.1774
rtoes 53.1323
lfemur -8.23221 -12.0169 -0.548173
ltibia 22.0534
lfoot -13.9521 -32.6342
ltoes 26.8852
